<?xml version="1.0" encoding="UTF-8" standalone="no"?>
<!-- Created with Inkscape (http://www.inkscape.org/) -->

<svg
   width="27.076536mm"
   height="22.539177mm"
   viewBox="0 0 27.076536 22.539177"
   version="1.1"
   id="svg1270"
   inkscape:version="1.1.2 (0a00cf5339, 2022-02-04)"
   sodipodi:docname="camera.svg"
   xmlns:inkscape="http://www.inkscape.org/namespaces/inkscape"
   xmlns:sodipodi="http://sodipodi.sourceforge.net/DTD/sodipodi-0.dtd"
   xmlns="http://www.w3.org/2000/svg"
   xmlns:svg="http://www.w3.org/2000/svg">
  <sodipodi:namedview
     id="namedview1272"
     pagecolor="#ffffff"
     bordercolor="#666666"
     borderopacity="1.0"
     inkscape:pageshadow="2"
     inkscape:pageopacity="0.0"
     inkscape:pagecheckerboard="0"
     inkscape:document-units="mm"
     showgrid="false"
     fit-margin-top="0"
     fit-margin-left="0"
     fit-margin-right="0"
     fit-margin-bottom="0"
     inkscape:zoom="0.69664703"
     inkscape:cx="250.48553"
     inkscape:cy="142.82699"
     inkscape:window-width="1920"
     inkscape:window-height="1016"
     inkscape:window-x="0"
     inkscape:window-y="0"
     inkscape:window-maximized="1"
     inkscape:current-layer="layer1" />
  <defs
     id="defs1267" />
  <g
     inkscape:label="Layer 1"
     inkscape:groupmode="layer"
     id="layer1"
     transform="translate(-38.62887,-110.43832)">
    <path
       style="fill:#ffffff;stroke-width:0.0529167"
       d="m 41.216398,132.89796 c -1.205735,-0.29212 -2.243212,-1.36716 -2.498947,-2.58941 -0.12004,-0.57372 -0.117172,-13.17883 0.0031,-13.7738 0.207855,-1.02794 0.888423,-1.90546 1.827213,-2.356 0.273912,-0.13145 0.624209,-0.26482 0.778439,-0.29637 0.170717,-0.0349 1.021409,-0.0574 2.174556,-0.0574 h 1.894139 l 1.127763,-1.69333 1.12776,-1.69333 h 4.53433 4.53432 l 1.12554,1.69 1.12554,1.69 2.04449,0.0188 c 2.26577,0.0208 2.21747,0.0141 2.96616,0.41315 0.69116,0.36839 1.30484,1.11486 1.57693,1.91816 l 0.14722,0.43469 v 6.79979 c 0,7.57578 0.0283,6.9665 -0.36102,7.77579 -0.24155,0.50215 -0.93333,1.18447 -1.4646,1.44459 -0.78101,0.3824 0.0849,0.35637 -11.72104,0.35235 -8.925006,-0.003 -10.685434,-0.0155 -10.941926,-0.0777 z m 21.631083,-2.27999 c 0.26568,-0.14298 0.42184,-0.30898 0.52665,-0.5598 0.0724,-0.17334 0.0818,-0.94169 0.0807,-6.64032 -10e-4,-6.25323 -0.004,-6.45098 -0.10334,-6.66942 -0.11046,-0.24336 -0.30543,-0.44891 -0.55695,-0.58719 -0.13896,-0.0764 -0.46506,-0.0906 -2.61573,-0.11374 l -2.45698,-0.0265 -1.09129,-1.66688 -1.0913,-1.66687 -3.33089,-0.0121 -3.3309,-0.0121 -1.12292,1.6897 -1.122916,1.68969 -2.448955,0.0157 -2.448955,0.0157 -0.235775,0.13229 c -0.129677,0.0728 -0.30827,0.23554 -0.396875,0.36174 l -0.1611,0.22944 -0.01567,6.49098 c -0.01088,4.50772 0.0017,6.55087 0.0411,6.68702 0.102308,0.35336 0.416958,0.63449 0.821236,0.73376 0.08731,0.0214 4.814094,0.0353 10.50396,0.0308 l 10.34521,-0.008 z m -11.56229,-2.21594 c -2.50437,-0.3933 -4.470445,-2.4945 -4.702374,-5.02557 -0.2594,-2.83085 1.588944,-5.39015 4.362124,-6.04 0.5883,-0.13786 1.89138,-0.13786 2.47968,0 2.37857,0.55738 4.13866,2.56065 4.36006,4.96245 0.33991,3.68755 -2.84391,6.67722 -6.49949,6.10312 z m 1.69334,-2.27692 c 0.92519,-0.2174 1.79675,-0.91347 2.21589,-1.76969 0.60741,-1.24084 0.45339,-2.63725 -0.4041,-3.66375 -0.66747,-0.79903 -1.56652,-1.21999 -2.60554,-1.21999 -0.30791,0 -0.63436,0.0352 -0.84244,0.0909 -1.75279,0.46878 -2.83356,2.21065 -2.46489,3.97267 0.25571,1.22215 1.28961,2.29723 2.48776,2.58688 0.42079,0.10172 1.18718,0.10316 1.61332,0.003 z"
       id="path1469" />
  </g>
</svg>
