<?xml version="1.0" encoding="UTF-8" standalone="no"?>
<svg
   height="180"
   width="180"
   id="svg14"
   xml:space="preserve"
   enable-background="new 0 0 1000 1000"
   viewBox="0 0 180 180"
   y="0px"
   x="0px"
   version="1.1"
   sodipodi:docname="apple-touch-icon.svg"
   inkscape:version="1.1.2 (0a00cf5339, 2022-02-04)"
   inkscape:export-filename="/home/strukturart/Desktop/Pages/fixit/application/assets/icons/apple-touch-icon.png"
   inkscape:export-xdpi="96"
   inkscape:export-ydpi="96"
   xmlns:inkscape="http://www.inkscape.org/namespaces/inkscape"
   xmlns:sodipodi="http://sodipodi.sourceforge.net/DTD/sodipodi-0.dtd"
   xmlns="http://www.w3.org/2000/svg"
   xmlns:svg="http://www.w3.org/2000/svg"
   xmlns:rdf="http://www.w3.org/1999/02/22-rdf-syntax-ns#"
   xmlns:cc="http://creativecommons.org/ns#"
   xmlns:dc="http://purl.org/dc/elements/1.1/"><g
   id="g825"
   transform="matrix(0.95856497,0,0,0.95856497,-1.6735649,-0.96320865)"><rect
     style="fill:#0000ff;fill-opacity:1;stroke:#000000;stroke-width:0"
     id="rect840"
     width="187.7807"
     height="187.7807"
     x="1.7459071"
     y="1.0048449"
     ry="0"
     inkscape:export-xdpi="242.94824"
     inkscape:export-ydpi="242.94824" /><text
     xml:space="preserve"
     style="font-size:13.9096px;line-height:26.0807px;font-family:Arial;-inkscape-font-specification:Arial;letter-spacing:0px;word-spacing:0px;fill:none;stroke:#000000;stroke-width:1.04323px;stroke-linecap:butt;stroke-linejoin:miter;stroke-opacity:1"
     x="8.6879206"
     y="-69.374306"
     id="text2162"><tspan
       id="tspan2160"
       x="8.6879206"
       y="-69.374306"
       style="stroke-width:1.04323px" /></text><g
     id="layer1"
     transform="matrix(1.0432261,0,0,1.0432261,-0.01477811,-21.615105)" /><circle
     style="fill:#0000ff;stroke-width:0.945382"
     id="path1171"
     cy="94.895195"
     cx="95.636253"
     r="78.241959" /><g
     id="g1138"
     transform="matrix(0.2037552,0,0,0.2037552,43.474925,42.733837)"><polygon
       style="fill:#ff9911"
       points="11.084,370.598 11.084,353.719 256.001,212.317 500.916,353.719 500.916,370.598 256.001,512 "
       id="polygon1108" /><path
       id="SVGCleanerId_0"
       style="fill:#f18700"
       d="M 382.247,336.943 304.956,25.953 h -0.009 c -0.941,-6.455 -5.655,-12.757 -14.162,-17.669 -19.131,-11.045 -50.435,-11.045 -69.566,0 -8.507,4.912 -13.222,11.214 -14.162,17.669 h -0.009 l -77.292,310.99 c -9.104,24.084 2.475,50.31 34.74,68.938 50.328,29.057 132.683,29.057 183.012,0 32.262,-18.628 43.842,-44.855 34.739,-68.938 z" /><g
       id="g1112"><path
         id="SVGCleanerId_0_1_"
         style="fill:#f18700"
         d="M 382.247,336.943 304.956,25.953 h -0.009 c -0.941,-6.455 -5.655,-12.757 -14.162,-17.669 -19.131,-11.045 -50.435,-11.045 -69.566,0 -8.507,4.912 -13.222,11.214 -14.162,17.669 h -0.009 l -77.292,310.99 c -9.104,24.084 2.475,50.31 34.74,68.938 50.328,29.057 132.683,29.057 183.012,0 32.262,-18.628 43.842,-44.855 34.739,-68.938 z" /></g><polygon
       style="fill:#f18700"
       points="256.001,495.121 256.001,512 11.084,370.598 11.084,353.719 "
       id="polygon1114" /><polygon
       style="fill:#d07400"
       points="256.001,495.121 256.001,512 500.916,370.598 500.916,353.719 "
       id="polygon1116" /><path
       style="fill:#ff9911"
       d="m 221.218,48.448 c -19.131,-11.045 -19.131,-29.119 0,-40.164 19.131,-11.045 50.435,-11.045 69.566,0 19.131,11.045 19.131,29.119 0,40.164 -19.131,11.045 -50.436,11.045 -69.566,0 z"
       id="path1118" /><path
       style="fill:#d07400"
       d="m 235.13,40.415 c -11.478,-6.627 -11.478,-17.471 0,-24.098 11.478,-6.627 30.261,-6.627 41.74,0 11.478,6.627 11.478,17.471 0,24.098 -11.478,6.627 -30.261,6.627 -41.74,0 z"
       id="path1120" /><path
       style="fill:#e0e0e2"
       d="m 362.967,259.374 -26.3,-105.819 c -3.277,2.736 -7.004,5.342 -11.215,7.773 -38.2,22.054 -100.708,22.054 -138.907,0 -4.211,-2.431 -7.937,-5.037 -11.215,-7.774 v 0 l -26.3,105.819 c 5.071,5.56 11.202,10.804 18.412,15.594 48.705,32.36 128.406,32.36 177.111,0 7.212,-4.789 13.345,-10.034 18.414,-15.593 z"
       id="path1122" /></g></g><sodipodi:namedview
   pagecolor="#ffffff"
   bordercolor="#666666"
   borderopacity="1"
   objecttolerance="10"
   gridtolerance="10"
   guidetolerance="10"
   inkscape:pageopacity="0"
   inkscape:pageshadow="2"
   inkscape:window-width="1920"
   inkscape:window-height="1016"
   id="namedview10"
   showgrid="false"
   inkscape:zoom="0.19403137"
   inkscape:cx="-59.268766"
   inkscape:cy="74.730183"
   inkscape:window-x="0"
   inkscape:window-y="0"
   inkscape:window-maximized="1"
   inkscape:current-layer="g825"
   inkscape:document-rotation="0"
   inkscape:pagecheckerboard="false"
   fit-margin-top="0"
   fit-margin-left="0"
   fit-margin-right="0"
   fit-margin-bottom="0" /><defs
   id="defs18" />
<metadata
   id="metadata2"> Svg Vector Icons : http://www.onlinewebfonts.com/icon <rdf:RDF><cc:Work
     rdf:about=""><dc:format>image/svg+xml</dc:format><dc:type
       rdf:resource="http://purl.org/dc/dcmitype/StillImage" /></cc:Work></rdf:RDF></metadata>

</svg>
